<mxfile host="app.diagrams.net" modified="2024-07-17T01:54:27.113Z" agent="Mozilla/5.0 (Windows NT 10.0; Win64; x64) AppleWebKit/537.36 (KHTML, like Gecko) Chrome/126.0.0.0 Safari/537.36" etag="hQpemsqTerUIqDU36l_v" version="24.3.1" type="device">
  <diagram name="Page-1" id="AAP5HEvnDvGfHqFOYS9A">
    <mxGraphModel dx="989" dy="514" grid="1" gridSize="10" guides="1" tooltips="1" connect="1" arrows="1" fold="1" page="1" pageScale="1" pageWidth="827" pageHeight="1169" math="0" shadow="0">
      <root>
        <mxCell id="0" />
        <mxCell id="1" parent="0" />
        <mxCell id="O9UAZULkS6Ri0deh1b3j-34" value="" style="ellipse;whiteSpace=wrap;html=1;dashed=1;" vertex="1" parent="1">
          <mxGeometry x="515" y="410" width="60" height="270" as="geometry" />
        </mxCell>
        <mxCell id="O9UAZULkS6Ri0deh1b3j-33" value="" style="ellipse;whiteSpace=wrap;html=1;dashed=1;" vertex="1" parent="1">
          <mxGeometry x="195" y="410" width="60" height="270" as="geometry" />
        </mxCell>
        <mxCell id="O9UAZULkS6Ri0deh1b3j-1" value="" style="ellipse;whiteSpace=wrap;html=1;aspect=fixed;" vertex="1" parent="1">
          <mxGeometry x="280" y="530" width="30" height="30" as="geometry" />
        </mxCell>
        <mxCell id="O9UAZULkS6Ri0deh1b3j-2" value="" style="ellipse;whiteSpace=wrap;html=1;aspect=fixed;" vertex="1" parent="1">
          <mxGeometry x="460" y="530" width="30" height="30" as="geometry" />
        </mxCell>
        <mxCell id="O9UAZULkS6Ri0deh1b3j-3" value="" style="ellipse;whiteSpace=wrap;html=1;aspect=fixed;fillColor=#3333FF;" vertex="1" parent="1">
          <mxGeometry x="530" y="450" width="30" height="30" as="geometry" />
        </mxCell>
        <mxCell id="O9UAZULkS6Ri0deh1b3j-6" value="" style="ellipse;whiteSpace=wrap;html=1;aspect=fixed;fillColor=#3333FF;" vertex="1" parent="1">
          <mxGeometry x="530" y="490" width="30" height="30" as="geometry" />
        </mxCell>
        <mxCell id="O9UAZULkS6Ri0deh1b3j-7" value="" style="ellipse;whiteSpace=wrap;html=1;aspect=fixed;fillColor=#3333FF;" vertex="1" parent="1">
          <mxGeometry x="530" y="530" width="30" height="30" as="geometry" />
        </mxCell>
        <mxCell id="O9UAZULkS6Ri0deh1b3j-8" value="" style="ellipse;whiteSpace=wrap;html=1;aspect=fixed;fillColor=#3333FF;" vertex="1" parent="1">
          <mxGeometry x="530" y="569.5" width="30" height="30" as="geometry" />
        </mxCell>
        <mxCell id="O9UAZULkS6Ri0deh1b3j-9" value="" style="ellipse;whiteSpace=wrap;html=1;aspect=fixed;fillColor=#3333FF;" vertex="1" parent="1">
          <mxGeometry x="530" y="610" width="30" height="30" as="geometry" />
        </mxCell>
        <mxCell id="O9UAZULkS6Ri0deh1b3j-11" value="" style="ellipse;whiteSpace=wrap;html=1;aspect=fixed;fillColor=#009900;" vertex="1" parent="1">
          <mxGeometry x="210" y="530" width="30" height="30" as="geometry" />
        </mxCell>
        <mxCell id="O9UAZULkS6Ri0deh1b3j-12" value="" style="ellipse;whiteSpace=wrap;html=1;aspect=fixed;fillColor=#009900;" vertex="1" parent="1">
          <mxGeometry x="210" y="570" width="30" height="30" as="geometry" />
        </mxCell>
        <mxCell id="O9UAZULkS6Ri0deh1b3j-13" value="" style="ellipse;whiteSpace=wrap;html=1;aspect=fixed;fillColor=#009900;" vertex="1" parent="1">
          <mxGeometry x="210" y="610" width="30" height="30" as="geometry" />
        </mxCell>
        <mxCell id="O9UAZULkS6Ri0deh1b3j-14" value="" style="ellipse;whiteSpace=wrap;html=1;aspect=fixed;fillColor=#009900;" vertex="1" parent="1">
          <mxGeometry x="210" y="490" width="30" height="30" as="geometry" />
        </mxCell>
        <mxCell id="O9UAZULkS6Ri0deh1b3j-15" value="" style="ellipse;whiteSpace=wrap;html=1;aspect=fixed;fillColor=#009900;" vertex="1" parent="1">
          <mxGeometry x="210" y="450" width="30" height="30" as="geometry" />
        </mxCell>
        <mxCell id="O9UAZULkS6Ri0deh1b3j-17" value="" style="endArrow=classic;html=1;rounded=0;exitX=1;exitY=0.5;exitDx=0;exitDy=0;entryX=0.5;entryY=0;entryDx=0;entryDy=0;" edge="1" parent="1" source="O9UAZULkS6Ri0deh1b3j-15" target="O9UAZULkS6Ri0deh1b3j-1">
          <mxGeometry width="50" height="50" relative="1" as="geometry">
            <mxPoint x="390" y="710" as="sourcePoint" />
            <mxPoint x="440" y="660" as="targetPoint" />
          </mxGeometry>
        </mxCell>
        <mxCell id="O9UAZULkS6Ri0deh1b3j-23" value="" style="endArrow=block;html=1;rounded=0;dashed=1;entryX=0;entryY=0.5;entryDx=0;entryDy=0;exitX=1;exitY=0.5;exitDx=0;exitDy=0;endFill=0;strokeColor=#FF3333;" edge="1" parent="1" source="O9UAZULkS6Ri0deh1b3j-1" target="O9UAZULkS6Ri0deh1b3j-2">
          <mxGeometry width="50" height="50" relative="1" as="geometry">
            <mxPoint x="320" y="680" as="sourcePoint" />
            <mxPoint x="370" y="630" as="targetPoint" />
          </mxGeometry>
        </mxCell>
        <mxCell id="O9UAZULkS6Ri0deh1b3j-24" value="" style="endArrow=classic;html=1;rounded=0;entryX=0;entryY=0;entryDx=0;entryDy=0;" edge="1" parent="1" target="O9UAZULkS6Ri0deh1b3j-1">
          <mxGeometry width="50" height="50" relative="1" as="geometry">
            <mxPoint x="240" y="510" as="sourcePoint" />
            <mxPoint x="280" y="545" as="targetPoint" />
          </mxGeometry>
        </mxCell>
        <mxCell id="O9UAZULkS6Ri0deh1b3j-25" value="" style="endArrow=classic;html=1;rounded=0;exitX=1;exitY=0.5;exitDx=0;exitDy=0;entryX=0;entryY=0.5;entryDx=0;entryDy=0;" edge="1" parent="1" source="O9UAZULkS6Ri0deh1b3j-11" target="O9UAZULkS6Ri0deh1b3j-1">
          <mxGeometry width="50" height="50" relative="1" as="geometry">
            <mxPoint x="252" y="519" as="sourcePoint" />
            <mxPoint x="290" y="555" as="targetPoint" />
          </mxGeometry>
        </mxCell>
        <mxCell id="O9UAZULkS6Ri0deh1b3j-26" value="" style="endArrow=classic;html=1;rounded=0;exitX=1;exitY=0.5;exitDx=0;exitDy=0;entryX=0;entryY=1;entryDx=0;entryDy=0;" edge="1" parent="1" source="O9UAZULkS6Ri0deh1b3j-12" target="O9UAZULkS6Ri0deh1b3j-1">
          <mxGeometry width="50" height="50" relative="1" as="geometry">
            <mxPoint x="262" y="529" as="sourcePoint" />
            <mxPoint x="300" y="565" as="targetPoint" />
          </mxGeometry>
        </mxCell>
        <mxCell id="O9UAZULkS6Ri0deh1b3j-27" value="" style="endArrow=classic;html=1;rounded=0;exitX=1;exitY=0.5;exitDx=0;exitDy=0;entryX=0.5;entryY=1;entryDx=0;entryDy=0;" edge="1" parent="1" source="O9UAZULkS6Ri0deh1b3j-13" target="O9UAZULkS6Ri0deh1b3j-1">
          <mxGeometry width="50" height="50" relative="1" as="geometry">
            <mxPoint x="272" y="539" as="sourcePoint" />
            <mxPoint x="310" y="575" as="targetPoint" />
          </mxGeometry>
        </mxCell>
        <mxCell id="O9UAZULkS6Ri0deh1b3j-28" value="" style="endArrow=classic;html=1;rounded=0;exitX=0.5;exitY=0;exitDx=0;exitDy=0;entryX=0;entryY=0.5;entryDx=0;entryDy=0;" edge="1" parent="1" source="O9UAZULkS6Ri0deh1b3j-2" target="O9UAZULkS6Ri0deh1b3j-3">
          <mxGeometry width="50" height="50" relative="1" as="geometry">
            <mxPoint x="460" y="560" as="sourcePoint" />
            <mxPoint x="498" y="596" as="targetPoint" />
          </mxGeometry>
        </mxCell>
        <mxCell id="O9UAZULkS6Ri0deh1b3j-29" value="" style="endArrow=classic;html=1;rounded=0;exitX=1;exitY=0;exitDx=0;exitDy=0;" edge="1" parent="1" source="O9UAZULkS6Ri0deh1b3j-2" target="O9UAZULkS6Ri0deh1b3j-6">
          <mxGeometry width="50" height="50" relative="1" as="geometry">
            <mxPoint x="485" y="540" as="sourcePoint" />
            <mxPoint x="540" y="475" as="targetPoint" />
          </mxGeometry>
        </mxCell>
        <mxCell id="O9UAZULkS6Ri0deh1b3j-30" value="" style="endArrow=classic;html=1;rounded=0;exitX=1;exitY=0.5;exitDx=0;exitDy=0;entryX=0;entryY=0.5;entryDx=0;entryDy=0;" edge="1" parent="1" source="O9UAZULkS6Ri0deh1b3j-2" target="O9UAZULkS6Ri0deh1b3j-7">
          <mxGeometry width="50" height="50" relative="1" as="geometry">
            <mxPoint x="500" y="545" as="sourcePoint" />
            <mxPoint x="538" y="521" as="targetPoint" />
          </mxGeometry>
        </mxCell>
        <mxCell id="O9UAZULkS6Ri0deh1b3j-31" value="" style="endArrow=classic;html=1;rounded=0;exitX=1;exitY=1;exitDx=0;exitDy=0;entryX=0;entryY=0.5;entryDx=0;entryDy=0;" edge="1" parent="1" source="O9UAZULkS6Ri0deh1b3j-2" target="O9UAZULkS6Ri0deh1b3j-8">
          <mxGeometry width="50" height="50" relative="1" as="geometry">
            <mxPoint x="510" y="555" as="sourcePoint" />
            <mxPoint x="548" y="531" as="targetPoint" />
          </mxGeometry>
        </mxCell>
        <mxCell id="O9UAZULkS6Ri0deh1b3j-32" value="" style="endArrow=classic;html=1;rounded=0;exitX=0.5;exitY=1;exitDx=0;exitDy=0;entryX=0;entryY=0.5;entryDx=0;entryDy=0;" edge="1" parent="1" source="O9UAZULkS6Ri0deh1b3j-2" target="O9UAZULkS6Ri0deh1b3j-9">
          <mxGeometry width="50" height="50" relative="1" as="geometry">
            <mxPoint x="496" y="566" as="sourcePoint" />
            <mxPoint x="540" y="595" as="targetPoint" />
          </mxGeometry>
        </mxCell>
        <mxCell id="O9UAZULkS6Ri0deh1b3j-36" value="&lt;b&gt;&lt;font style=&quot;font-size: 14px;&quot;&gt;S&lt;/font&gt;&lt;/b&gt;" style="text;html=1;align=center;verticalAlign=middle;whiteSpace=wrap;rounded=0;" vertex="1" parent="1">
          <mxGeometry x="170" y="400" width="60" height="30" as="geometry" />
        </mxCell>
        <mxCell id="O9UAZULkS6Ri0deh1b3j-37" value="&lt;b&gt;&lt;font style=&quot;font-size: 14px;&quot;&gt;T&lt;/font&gt;&lt;/b&gt;" style="text;html=1;align=center;verticalAlign=middle;whiteSpace=wrap;rounded=0;" vertex="1" parent="1">
          <mxGeometry x="540" y="400" width="60" height="30" as="geometry" />
        </mxCell>
        <mxCell id="O9UAZULkS6Ri0deh1b3j-38" value="&lt;font style=&quot;font-size: 14px;&quot;&gt;e&lt;/font&gt;" style="text;html=1;align=center;verticalAlign=middle;whiteSpace=wrap;rounded=0;" vertex="1" parent="1">
          <mxGeometry x="353.5" y="520" width="60" height="30" as="geometry" />
        </mxCell>
      </root>
    </mxGraphModel>
  </diagram>
</mxfile>
